<?xml version="1.0" encoding="utf-8"?>
<!-- Generator: Adobe Illustrator 20.1.0, SVG Export Plug-In . SVG Version: 6.00 Build 0)  -->
<svg version="1.1" id="Layer_1" xmlns="http://www.w3.org/2000/svg" xmlns:xlink="http://www.w3.org/1999/xlink" x="0px" y="0px"
	 viewBox="0 0 260 70" style="enable-background:new 0 0 260 70;" xml:space="preserve">
<style type="text/css">
	.st0{fill:#FFFFFF;}
</style>
<g>
	<path class="st0" d="M48.2,6.8C43,3.8,37,2.1,30.6,2.1C14.6,2.1,0,14.7,0,34.2c0,19.5,15.8,35.3,35.3,35.3h35.3
		c-19.5,0-35.3-15.8-35.3-35.3C35.3,21.2,42.3,11.4,48.2,6.8L48.2,6.8"/>
	<path class="st0" d="M54.5,63.2c5.2,3,11.2,4.7,17.6,4.7c16,0,30.6-12.6,30.6-32.1c0-19.5-15.8-35.3-35.3-35.3H32.2
		c19.5,0,35.3,15.8,35.3,35.3C67.5,48.8,60.4,58.6,54.5,63.2L54.5,63.2"/>
	<path class="st0" d="M146.2,2.5l-4,18.9c-1.9,8.3-9.2,11.6-16.8,11.6c-7.5,0-13.5-3.3-11.8-11.6l4-18.9h8.3L121.9,21
		c-0.7,3.8,0.8,6.2,4.7,6.2c3.9,0,6.4-2.4,7.3-6.2l3.9-18.5H146.2"/>
	<path class="st0" d="M154.9,13.9c2.2-2.1,4.5-2.9,7.1-2.9c4.5,0,7.2,2.9,6.2,7.5l-3,13.9h-7.9l2.6-12.2c0.3-2,0.3-4.2-2.1-4.2
		c-3.9,0-4.3,4.3-4.4,4.5L151,32.4h-7.9l3.3-15.5c0.4-1.9,0.6-3.1,0.9-5.3h8L154.9,13.9"/>
	<path class="st0" d="M173.8,8l1.2-5.6h8L181.8,8H173.8 M168.7,32.4l4.4-20.8h7.9l-4.4,20.8H168.7z"/>
	<path class="st0" d="M186.6,11.6l0.7-3.2l8.5-3l-1.3,6.1h4.6l-1.1,5h-4.6l-1.8,8.2c-0.1,0.5-1,3.2,0.8,3.2c1,0,2.1,0,3.1-0.1
		l-1,4.7c-1.9,0.3-3.2,0.4-4.3,0.4c-5.4,0-8.4-0.7-6.7-7.1l2-9.3h-4.1l1.1-5H186.6"/>
	<path class="st0" d="M212.9,19.4c0.2-1.1,0.1-2.2-0.3-3.1c-0.4-0.9-1.2-1.4-2.5-1.3c-2.8,0.1-3.8,2.1-4.6,4.4H212.9 M204.5,23.6
		c-0.6,2.7-0.4,5,2.5,5c2.2,0,3.8-1,4.5-3h7.3c-0.8,2.7-2.9,4.6-5.2,5.8c-2.1,1.2-4.5,1.6-6.9,1.6c-8.3,0-10.9-3.6-9.2-11.7
		C199,14.7,204.7,11,211,11c8.5,0,10.1,4.9,8.5,12.6H204.5z"/>
	<path class="st0" d="M229.6,22c-0.6,2.7-0.8,6.5,2.5,6.5c3.2,0,4.6-3.7,5.2-6.5c0.6-2.8,1-6.5-2.5-6.5
		C231.3,15.5,230.1,19.2,229.6,22 M235.7,29.3h-0.2c-1.6,2.5-4.8,3.7-7.7,3.7c-5.9,0-7.5-5.8-6.4-10.9c1.2-5.5,5.1-11.1,11.3-11.1
		c2.6,0,5,0.9,6.1,3.1h0.1l2.5-11.6h7.9l-6.4,29.9h-7.7L235.7,29.3z"/>
	<path class="st0" d="M126.1,50.7c2.7,0,5.3-0.4,6-3.4c0.7-3.1-1.8-3.4-4.5-3.4h-3.2l-1.5,6.9H126.1 M119.2,68h-8.3l6.4-29.9h13.8
		c5.1,0,11.3,1.4,10,7.7c-0.9,4.5-4.9,6.8-9.2,7.3l0,0.2c5.3,0.1,5.7,2.8,5.3,7.5c-0.3,2.5-0.4,4.8-0.2,7.3h-9
		c0-2.1,0.2-4.2,0.4-6.3c0.4-3.6,0.6-5.1-3.6-5.1h-3.1L119.2,68z"/>
	<path class="st0" d="M155,54.9c0.2-1.1,0.1-2.2-0.3-3.1c-0.4-0.9-1.2-1.4-2.5-1.3c-2.8,0.1-3.8,2.1-4.6,4.4H155 M146.7,59.1
		c-0.6,2.7-0.4,5,2.5,5c2.2,0,3.8-1,4.5-3h7.3c-0.8,2.7-2.9,4.6-5.2,5.8c-2.1,1.2-4.5,1.6-6.9,1.6c-8.3,0-10.9-3.6-9.2-11.7
		c1.4-6.6,7.1-10.3,13.4-10.3c8.5,0,10.1,4.9,8.5,12.6H146.7z"/>
	<path class="st0" d="M173.7,49.4c2.2-2.1,4.5-2.9,7.1-2.9c4.5,0,7.2,2.9,6.2,7.5L184,68h-7.9l2.6-12.2c0.3-2,0.3-4.2-2.1-4.2
		c-3.9,0-4.3,4.3-4.4,4.5L169.7,68h-7.9l3.3-15.5c0.4-1.9,0.6-3.1,0.9-5.3h8L173.7,49.4"/>
	<path class="st0" d="M193.6,47.1l0.7-3.1l8.5-3l-1.3,6.1h4.6l-1.1,5h-4.6l-1.8,8.2c-0.1,0.5-1,3.2,0.8,3.2c1,0,2.1,0,3.1-0.1
		l-1,4.7c-1.9,0.3-3.2,0.4-4.3,0.4c-5.3,0-8.4-0.7-6.6-7.1l2-9.3h-4.1l1.1-5H193.6"/>
	<path class="st0" d="M213.5,64c3.4,0,4.4-3.2,5-6c-1.7,0-3.2-0.1-4.4,0.5c-1.3,0.6-2.4,1.3-2.7,2.8C211,62.8,212,64,213.5,64
		 M216.6,68c0-0.7,0.1-1.3,0.4-2.8H217c-1.3,1.5-3.5,3.4-7.4,3.4c-4.9,0-6.9-2.7-5.9-6.9c1.2-5.1,6.2-7.1,13-7.1h2.5
		c0.4-1.8,1.4-4.5-1.8-4.4c-1.9,0.1-2.9,1.9-3.2,3.2h-7.4c0.6-2.9,2.5-4.6,4.8-5.6c2.4-1,5.1-1.2,7.4-1.2c4.2,0,8.9,1.8,7.9,6.5
		l-2.3,10.7c-0.2,0.9-0.2,1.8-0.5,4.3H216.6z"/>
	<polyline class="st0" points="227,68 233.4,38 241.3,38 234.9,68 227,68 	"/>
	<path class="st0" d="M252.4,53.6c0.1-0.7,0.2-1.3-0.1-1.7c-0.3-0.5-0.9-0.8-2-0.8c-1.2,0-2,0.7-2.3,1.9c-0.3,1.5,2.9,1.4,7.5,3
		c2.3,0.8,3.7,2.3,3,5.7c-1.2,5.5-6.7,6.9-11.4,6.9c-5.1,0-9.9-1-8.5-7.4h7.5c-0.3,0.6-0.2,1.3,0.1,1.9c0.3,0.5,0.9,0.9,1.7,0.9
		c1.5,0,2.8-0.6,3.1-1.9c0.8-3.7-12-1.5-10.4-9c1.1-5.1,6.9-6.6,11-6.6c4.9,0,9.2,1.3,8.3,7.1H252.4"/>
	<path class="st0" d="M254.2,5.4c0.5,0,1.2,0.1,1.2-0.6c0-0.5-0.4-0.6-0.8-0.6h-1v1.2H254.2 M253.6,7.4h-0.5V3.8h1.5
		c0.9,0,1.2,0.3,1.2,1c0,0.7-0.5,0.9-1.1,1l1.1,1.6h-0.5l-1-1.6h-0.8V7.4z M256.9,5.6c0-1.5-1.1-2.6-2.6-2.6c-1.5,0-2.6,1.1-2.6,2.6
		c0,1.5,1.1,2.6,2.6,2.6C255.8,8.2,256.9,7.1,256.9,5.6z M251.2,5.6c0-1.7,1.4-3.1,3.1-3.1c1.7,0,3.1,1.4,3.1,3.1
		c0,1.7-1.4,3.1-3.1,3.1C252.6,8.7,251.2,7.3,251.2,5.6z"/>
</g>
</svg>
